<svg width="412" height="413" viewBox="0 0 412 413" fill="none" xmlns="http://www.w3.org/2000/svg">
<rect x="3" y="3.56055" width="406" height="406" rx="203" fill="#FF0000"/>
<rect x="3" y="3.56055" width="406" height="406" rx="203" stroke="white" stroke-width="6"/>
<path d="M210.419 314.397H201.578V290.443H210.419V314.397ZM198.919 299.773H190.078V275.819H198.919V299.773ZM221.923 299.773H213.082V275.819H221.923V299.773ZM157.652 205.588C159.164 215.162 163.548 237.384 168.991 249.68L141.528 281.175C138.084 259.758 136.486 214.659 157.652 205.588ZM254.349 205.588C275.515 214.659 273.917 259.758 270.473 281.175L243.01 249.68C248.453 237.384 252.837 215.162 254.349 205.588ZM163.551 171.959C170.331 133.887 193.805 96.4023 206.003 98.3867C226.676 98.0583 250.632 161.067 250.307 189.781C250.307 196.54 249.947 203.126 249.272 209.467L213.321 163.232C211.347 160.693 207.687 160.236 205.148 162.21C202.61 164.184 202.152 167.843 204.126 170.382L246.834 225.307C242.75 245.256 235.331 261.589 226.019 271.335V271.055H185.984V271.333C171.575 256.25 161.699 225.395 161.699 189.781C161.712 189.217 161.731 188.651 161.753 188.085L194.837 228.229C196.841 230.661 200.416 231.056 202.903 229.122C205.492 227.109 205.908 223.355 203.822 220.824L163.551 171.959Z" fill="white"/>
</svg>
